<svg width="35" height="35" viewBox="0 0 35 35" fill="none" xmlns="http://www.w3.org/2000/svg">
<rect width="35" height="35" rx="17.5" fill="#E1EEF3"/>
<path d="M17.125 6.25C17.8555 6.25 18.5 6.89453 18.5 7.625V8.48438C21.6367 9.08594 24 11.8789 24 15.1875V16.0039C24 18.0234 24.7305 20 26.0625 21.5039L26.3633 21.8477C26.75 22.2773 26.8359 22.8359 26.6211 23.3516C26.4062 23.8242 25.8906 24.125 25.375 24.125H8.875C8.31641 24.125 7.80078 23.8242 7.58594 23.3516C7.37109 22.8359 7.45703 22.2773 7.84375 21.8477L8.14453 21.5039C9.47656 20 10.25 18.0234 10.25 16.0039V15.1875C10.25 11.8789 12.6133 9.08594 15.75 8.48438V7.625C15.75 6.89453 16.3516 6.25 17.125 6.25ZM19.0586 27.4766C18.543 27.9922 17.8555 28.25 17.125 28.25C16.3945 28.25 15.6641 27.9922 15.1484 27.4766C14.6328 26.9609 14.375 26.2305 14.375 25.5H17.125H19.875C19.875 26.2305 19.5742 26.9609 19.0586 27.4766Z" fill="#327BA6"/>
</svg>
