<svg width="20" height="21" viewBox="0 0 20 21" fill="none" xmlns="http://www.w3.org/2000/svg">
<path fill-rule="evenodd" clip-rule="evenodd" d="M15.4138 14.3393L19.8574 18.7891C20.0558 19.0099 20.046 19.3479 19.8352 19.5568L19.0576 20.3354C18.9532 20.4408 18.8113 20.5 18.6632 20.5C18.5151 20.5 18.3731 20.4408 18.2688 20.3354L13.8252 15.8857C13.7023 15.7624 13.5908 15.6284 13.4919 15.4852L12.6587 14.3728C11.2802 15.4751 9.56821 16.0753 7.8041 16.0748C4.16879 16.0874 1.00983 13.5762 0.197442 10.0279C-0.614962 6.47957 1.13601 2.8411 4.41373 1.26657C7.69144 -0.307953 11.6212 0.601681 13.8763 3.45695C16.1314 6.31221 16.1102 10.3511 13.8252 13.1824L14.9361 13.95C15.1096 14.0612 15.2698 14.1918 15.4138 14.3393ZM2.24958 8.28767C2.24958 11.3596 4.73642 13.8499 7.8041 13.8499C9.27727 13.8499 10.6901 13.2639 11.7317 12.2208C12.7734 11.1777 13.3586 9.76289 13.3586 8.28767C13.3586 5.21569 10.8717 2.72539 7.8041 2.72539C4.73642 2.72539 2.24958 5.21569 2.24958 8.28767Z" fill="#327BA6"/>
</svg>
