<svg width="35" height="35" viewBox="0 0 35 35" fill="none" xmlns="http://www.w3.org/2000/svg">
<rect width="35" height="35" rx="17.5" fill="#E1EEF3"/>
<path d="M17.125 17.25C15.1484 17.25 13.3438 16.2188 12.3555 14.5C11.3672 12.8242 11.3672 10.7188 12.3555 9C13.3438 7.32422 15.1484 6.25 17.125 6.25C19.0586 6.25 20.8633 7.32422 21.8516 9C22.8398 10.7188 22.8398 12.8242 21.8516 14.5C20.8633 16.2188 19.0586 17.25 17.125 17.25ZM15.1484 19.3125H19.0586C23.3125 19.3125 26.75 22.75 26.75 27.0039C26.75 27.6914 26.1484 28.25 25.4609 28.25H8.74609C8.05859 28.25 7.5 27.6914 7.5 27.0039C7.5 22.75 10.8945 19.3125 15.1484 19.3125Z" fill="#327BA6"/>
</svg>
